<svg xmlns="http://www.w3.org/2000/svg" viewBox="0 0 283.78 307.67"><path d="M140.48.6.48,145.9a1.63,1.63,0,0,0,.1,2.4,1.85,1.85,0,0,0,1.2.5h36.9a1.71,1.71,0,0,1,1.8,1.7h0a1.71,1.71,0,0,0,1.8,1.7c4.8,0,9.6.1,14.4.1a1.71,1.71,0,0,0,1.8-1.7V133.4a1.71,1.71,0,0,0-1.8-1.7h-14a1.75,1.75,0,0,1-1.8-1.6,1.9,1.9,0,0,1,.5-1.3l99.1-102.9a2,2,0,0,1,2.7,0l99.2,102.9a1.63,1.63,0,0,1-.1,2.4,1.85,1.85,0,0,1-1.2.5h-14a1.71,1.71,0,0,0-1.8,1.7V254a1.71,1.71,0,0,1-1.8,1.7h-5.1a1.71,1.71,0,0,0-1.8,1.7c.1,4.5,0,9-.1,13.6a1.79,1.79,0,0,0,1.8,1.8h23.2a1.71,1.71,0,0,0,1.8-1.7V150.5a1.71,1.71,0,0,1,1.8-1.7H282a1.75,1.75,0,0,0,1.8-1.6,1.9,1.9,0,0,0-.5-1.3L143.28.6a1.93,1.93,0,0,0-2.8,0Z"/><path d="M216.38,255.7H58.48V152.3c-6,0-12-.1-18-.1V272.7h175.7C216.48,267.1,216.58,261.4,216.38,255.7Z"/><path d="M149.28,259.1a8.39,8.39,0,0,0,11.9,0h.1l47.2-47.2a37.94,37.94,0,0,0-53.2-54.1,37.94,37.94,0,0,0-53.3,54Zm-42.8-96.5a31.48,31.48,0,0,1,44.6.1h0l1.9,1.9a3.17,3.17,0,0,0,2.3.9h0a3.17,3.17,0,0,0,2.3-.9l1.9-1.9a31.16,31.16,0,0,1,22.3-9.3A31.45,31.45,0,0,1,204,207.2h0l-47.3,47.3a2.05,2.05,0,0,1-2.9,0h0l-47.3-47.3a31.16,31.16,0,0,1-9.3-22.3A31.57,31.57,0,0,1,106.48,162.6Z" style="stroke:#000;stroke-miterlimit:10;stroke-width:0.028346460312604904px"/><text transform="translate(30.4 261.17) scale(0.98 1)" style="isolation:isolate;font-size:185.99159240722656px;font-family:MyriadPro-Regular, Myriad Pro">K</text></svg>