<svg xmlns="http://www.w3.org/2000/svg" viewBox="0 0 1078.78 307.67"><path d="M140.48.6.48,145.9a1.63,1.63,0,0,0,.1,2.4,1.85,1.85,0,0,0,1.2.5h36.9a1.71,1.71,0,0,1,1.8,1.7h0a1.71,1.71,0,0,0,1.8,1.7c4.8,0,9.6.1,14.4.1a1.71,1.71,0,0,0,1.8-1.7V133.4a1.71,1.71,0,0,0-1.8-1.7h-14a1.75,1.75,0,0,1-1.8-1.6,1.9,1.9,0,0,1,.5-1.3l99.1-102.9a2,2,0,0,1,2.7,0l99.2,102.9a1.63,1.63,0,0,1-.1,2.4,1.85,1.85,0,0,1-1.2.5h-14a1.71,1.71,0,0,0-1.8,1.7V254a1.71,1.71,0,0,1-1.8,1.7h-5.1a1.71,1.71,0,0,0-1.8,1.7c.1,4.5,0,9-.1,13.6a1.79,1.79,0,0,0,1.8,1.8h23.2a1.71,1.71,0,0,0,1.8-1.7V150.5a1.71,1.71,0,0,1,1.8-1.7H282a1.75,1.75,0,0,0,1.8-1.6,1.9,1.9,0,0,0-.5-1.3L143.28.6a1.93,1.93,0,0,0-2.8,0Z"/><path d="M216.38,255.7H58.48V152.3c-6,0-12-.1-18-.1V272.7h175.7C216.48,267.1,216.58,261.4,216.38,255.7Z"/><path d="M149.28,259.1a8.39,8.39,0,0,0,11.9,0h.1l47.2-47.2a37.94,37.94,0,0,0-53.2-54.1,37.94,37.94,0,0,0-53.3,54Zm-42.8-96.5a31.48,31.48,0,0,1,44.6.1h0l1.9,1.9a3.17,3.17,0,0,0,2.3.9h0a3.17,3.17,0,0,0,2.3-.9l1.9-1.9a31.16,31.16,0,0,1,22.3-9.3A31.45,31.45,0,0,1,204,207.2h0l-47.3,47.3a2.05,2.05,0,0,1-2.9,0h0l-47.3-47.3a31.16,31.16,0,0,1-9.3-22.3A31.57,31.57,0,0,1,106.48,162.6Z" style="stroke:#000;stroke-miterlimit:10;stroke-width:0.028346460312604904px"/><text transform="translate(30.4 261.17) scale(0.98 1)" style="isolation:isolate;font-size:185.99159240722656px;font-family:MyriadPro-Regular, Myriad Pro">K</text><path d="M334,209.7c-1-18.5-2.2-40.8-2-57.4h-.6c-4.5,15.6-10.1,32.1-16.8,50.4l-23.5,64.5h-13L256.68,204c-6.3-18.7-11.6-35.9-15.4-51.6H241c-.4,16.6-1.4,38.8-2.6,58.7l-3.6,57h-16.4l9.3-132.8h21.9l22.7,64.2c5.5,16.4,10,31,13.4,44.8h.6c3.4-13.4,8.1-28,14-44.8L324,135.2h21.9l8.2,132.8h-16.8Z"/><path d="M492.48,209.7c-1-18.5-2.2-40.8-2-57.4h-.6c-4.5,15.6-10,32.1-16.8,50.4l-23.5,64.5h-13L415.18,204c-6.3-18.7-11.6-35.9-15.4-51.6h-.4c-.4,16.6-1.4,38.8-2.6,58.7l-3.5,57H377l9.3-132.8h21.8l22.7,64.2c5.5,16.4,10,31,13.4,44.8h.6c3.4-13.4,8.1-28,14-44.8l23.6-64.2h21.9l8.3,132.8h-16.8Z"/><path d="M556.08,135.2v78.6c0,29.8,13.2,42.4,30.9,42.4,19.7,0,32.3-13,32.3-42.4V135.2h17.3v77.5c0,40.8-21.5,57.5-50.3,57.5-27.2,0-47.7-15.6-47.7-56.8V135.2Z"/><path d="M666.48,268V135.2h18.7l42.6,67.2a363.35,363.35,0,0,1,23.8,43.2l.4-.2c-1.6-17.7-2-33.9-2-54.6V135.2h16.2V268h-17.3l-42.2-67.4c-9.3-14.8-18.1-30-24.8-44.4l-.6.2c1,16.8,1.4,32.7,1.4,54.8V268Z"/><path d="M813.28,135.2V268h-17.2V135.2Z"/><path d="M956.78,200.2c0,45.7-27.8,70-61.7,70-35.1,0-59.7-27.2-59.7-67.4,0-42.2,26.2-69.8,61.7-69.8C933.38,133,956.78,160.8,956.78,200.2Zm-103.1,2.2c0,28.4,15.4,53.8,42.4,53.8,27.2,0,42.6-25,42.6-55.2,0-26.4-13.8-54-42.4-54C867.88,147,853.68,173.2,853.68,202.4Z"/><path d="M979.08,268V135.2h18.7l42.6,67.2a363.35,363.35,0,0,1,23.8,43.2l.4-.2c-1.6-17.7-2-33.9-2-54.6V135.2h16.2V268h-17.3l-42.2-67.4c-9.3-14.8-18.1-30-24.8-44.4l-.6.2c1,16.8,1.4,32.7,1.4,54.8V268Z"/></svg>