<?xml version="1.0" encoding="utf-8"?>
<!-- Generator: Adobe Illustrator 24.3.0, SVG Export Plug-In . SVG Version: 6.00 Build 0)  -->
<svg version="1.1" id="Calque_1" xmlns="http://www.w3.org/2000/svg" xmlns:xlink="http://www.w3.org/1999/xlink" x="0px" y="0px"
	 viewBox="0 0 1078.8 307.7" style="enable-background:new 0 0 1078.8 307.7;" xml:space="preserve">
<style type="text/css">
	.st0{stroke:#000000;stroke-width:2.834646e-02;stroke-miterlimit:10;}
	.st1{font-family:'MyriadPro-Regular';}
	.st2{font-size:185.9916px;}
</style>
<path d="M140.5,0.6L0.5,145.9c-0.7,0.7-0.6,1.8,0.1,2.4c0.3,0.3,0.8,0.5,1.2,0.5h36.9c1,0,1.8,0.7,1.8,1.7l0,0c0,1,0.8,1.7,1.8,1.7
	c4.8,0,9.6,0.1,14.4,0.1c1,0,1.8-0.7,1.8-1.7v-17.2c0-1-0.8-1.7-1.8-1.7h-14c-0.9,0.1-1.7-0.7-1.8-1.6c0-0.5,0.2-1,0.5-1.3
	l99.1-102.9c0.8-0.7,1.9-0.7,2.7,0l99.2,102.9c0.7,0.7,0.6,1.8-0.1,2.4c-0.3,0.3-0.8,0.5-1.2,0.5h-14c-1,0-1.8,0.7-1.8,1.7V254
	c0,1-0.8,1.7-1.8,1.7h-5.1c-1,0-1.8,0.7-1.8,1.7c0.1,4.5,0,9-0.1,13.6c0,1,0.8,1.8,1.8,1.8c0,0,0,0,0,0h23.2c1,0,1.8-0.7,1.8-1.7
	V150.5c0-1,0.8-1.7,1.8-1.7H282c0.9,0.1,1.7-0.7,1.8-1.6c0-0.5-0.2-1-0.5-1.3L143.3,0.6C142.6-0.2,141.3-0.2,140.5,0.6
	C140.5,0.6,140.5,0.6,140.5,0.6z"/>
<path d="M216.4,255.7H58.5V152.3c-6,0-12-0.1-18-0.1v120.5h175.7C216.5,267.1,216.6,261.4,216.4,255.7z"/>
<path class="st0" d="M149.3,259.1c3.3,3.3,8.6,3.3,11.9,0c0,0,0,0,0.1,0l47.2-47.2c14.8-14.9,14.7-38.9-0.2-53.7
	c-14.6-14.5-38.2-14.7-53-0.4c-15.1-14.5-39.1-14.1-53.6,1c-14.3,14.8-14.1,38.3,0.3,53L149.3,259.1z M106.5,162.6
	c12.3-12.3,32.3-12.3,44.6,0.1c0,0,0,0,0,0l1.9,1.9c0.6,0.6,1.4,0.9,2.3,0.9l0,0c0.9,0,1.7-0.3,2.3-0.9l1.9-1.9
	c5.9-6,13.9-9.3,22.3-9.3c8.4,0,16.4,3.3,22.3,9.2c12.3,12.3,12.3,32.3-0.1,44.6c0,0,0,0,0,0l-47.3,47.3c-0.8,0.8-2.1,0.8-2.9,0
	c0,0,0,0,0,0l-47.3-47.3c-6-5.9-9.3-13.9-9.3-22.3C97.2,176.5,100.6,168.5,106.5,162.6z"/>
<text transform="matrix(0.98 0 0 1 30.4199 261.17)" class="st1 st2">K</text>
<path d="M334,209.7c-1-18.5-2.2-40.8-2-57.4h-0.6c-4.5,15.6-10.1,32.1-16.8,50.4l-23.5,64.5h-13L256.7,204
	c-6.3-18.7-11.6-35.9-15.4-51.6H241c-0.4,16.6-1.4,38.8-2.6,58.7l-3.6,57h-16.4l9.3-132.8h21.9l22.7,64.2c5.5,16.4,10,31,13.4,44.8
	h0.6c3.4-13.4,8.1-28,14-44.8l23.7-64.3h21.9l8.2,132.8h-16.8L334,209.7z"/>
<path d="M492.5,209.7c-1-18.5-2.2-40.8-2-57.4h-0.6c-4.5,15.6-10,32.1-16.8,50.4l-23.5,64.5h-13L415.2,204
	c-6.3-18.7-11.6-35.9-15.4-51.6h-0.4c-0.4,16.6-1.4,38.8-2.6,58.7l-3.5,57H377l9.3-132.8h21.8l22.7,64.2c5.5,16.4,10,31,13.4,44.8
	h0.6c3.4-13.4,8.1-28,14-44.8l23.6-64.2h21.9l8.3,132.8h-16.8L492.5,209.7z"/>
<path d="M556.1,135.2v78.6c0,29.8,13.2,42.4,30.9,42.4c19.7,0,32.3-13,32.3-42.4v-78.6h17.3v77.5c0,40.8-21.5,57.5-50.3,57.5
	c-27.2,0-47.7-15.6-47.7-56.8v-78.2H556.1z"/>
<path d="M666.5,268V135.2h18.7l42.6,67.2c8.9,13.9,16.9,28.3,23.8,43.2l0.4-0.2c-1.6-17.7-2-33.9-2-54.6v-55.6h16.2V268h-17.3
	l-42.2-67.4c-9.3-14.8-18.1-30-24.8-44.4l-0.6,0.2c1,16.8,1.4,32.7,1.4,54.8V268H666.5z"/>
<path d="M813.3,135.2V268h-17.2V135.2H813.3z"/>
<path d="M956.8,200.2c0,45.7-27.8,70-61.7,70c-35.1,0-59.7-27.2-59.7-67.4c0-42.2,26.2-69.8,61.7-69.8
	C933.4,133,956.8,160.8,956.8,200.2z M853.7,202.4c0,28.4,15.4,53.8,42.4,53.8c27.2,0,42.6-25,42.6-55.2c0-26.4-13.8-54-42.4-54
	C867.9,147,853.7,173.2,853.7,202.4z"/>
<path d="M979.1,268V135.2h18.7l42.6,67.2c8.9,13.9,16.9,28.3,23.8,43.2l0.4-0.2c-1.6-17.7-2-33.9-2-54.6v-55.6h16.2V268h-17.3
	l-42.2-67.4c-9.3-14.8-18.1-30-24.8-44.4l-0.6,0.2c1,16.8,1.4,32.7,1.4,54.8V268H979.1z"/>
</svg>
